<svg height="512" viewBox="0 0 512 512" width="512" xmlns="http://www.w3.org/2000/svg"><g id="Flat"><path d="m24 296h56v32h-56z" fill="#808080"/><path d="m80 224h32v160h-32z" fill="#3ea7ff"/><path d="m112 208h32v192h-32z" fill="#3ea7ff"/><path d="m128 208h16v192h-16z" fill="#2b7cd4"/><path d="m96 224h16v160h-16z" fill="#2b7cd4"/><path d="m176 176h192v32h-192z" fill="#104f91"/><path d="m432 80h-256v64h32v32h192v-32h32z" fill="#3ea7ff"/><circle cx="312" cy="192" fill="#2b7cd4" r="16"/><circle cx="248" cy="128" fill="#87c9ff" r="16"/><circle cx="232" cy="192" fill="#2b7cd4" r="16"/><circle cx="312" cy="128" fill="#87c9ff" r="16"/><path d="m176 80h256v-16a16 16 0 0 0 -16-16h-224a16 16 0 0 0 -16 16z" fill="#87c9ff"/><path d="m176 144h32v32h-32z" fill="#2b7cd4"/><path d="m400 144h32v32h-32z" fill="#2b7cd4"/><path d="m488 240v128a32.004 32.004 0 0 1 -32 32h-64v-192h64a32.004 32.004 0 0 1 32 32z" fill="#3ea7ff"/><path d="m144 208h248v192h-248z" fill="#3ea7ff"/><path d="m392 208h16v192h-16z" fill="#104f91"/><g fill="#2b7cd4"><path d="m144 208h48v32h-48z"/><path d="m144 368h48v32h-48z"/><circle cx="424" cy="256" r="8"/></g><path d="m424 288h32v48h-32z" fill="#87c9ff"/><path d="m184 296h208v16h-208z" fill="#2b7cd4"/><path d="m184 264h208v16h-208z" fill="#2b7cd4"/><path d="m184 232h208v16h-208z" fill="#2b7cd4"/><path d="m144 176h32v48h-32z" fill="#3ea7ff"/><path d="m144 384h32v48h-32z" fill="#3ea7ff"/><path d="m184 328h208v16h-208z" fill="#2b7cd4"/><path d="m184 360h208v40h-208z" fill="#2b7cd4"/><path d="m392 432v32h-184v-32h32v-64h120v64z" fill="#3ea7ff"/><path d="m256 368v80h-48v-16h32v-64z" fill="#87c9ff"/><path d="m344 368v80h48v-16h-32v-64z" fill="#2b7cd4"/></g></svg>